<svg xmlns="http://www.w3.org/2000/svg" version="1.1" xmlns:xlink="http://www.w3.org/1999/xlink" xmlns:svgjs="http://svgjs.dev/svgjs" width="1500" height="666" viewBox="0 0 1500 666"><g transform="matrix(1,0,0,1,-0.9090909090909918,-0.4625459531678189)"><svg viewBox="0 0 396 176" data-background-color="#ffffff" preserveAspectRatio="xMidYMid meet" height="666" width="1500" xmlns="http://www.w3.org/2000/svg" xmlns:xlink="http://www.w3.org/1999/xlink"><g id="tight-bounds" transform="matrix(1,0,0,1,0.2400000000000091,0.12223436600230286)"><svg viewBox="0 0 395.52 160.71858229891032" height="160.71858229891032" width="395.52"><g><svg viewBox="0 0 395.52 160.71858229891032" height="160.71858229891032" width="395.52"><g><svg viewBox="0 0 395.52 160.71858229891032" height="160.71858229891032" width="395.52"><g id="textblocktransform"><svg viewBox="0 0 395.52 160.71858229891032" height="160.71858229891032" width="395.52" id="textblock"><g><rect width="395.52" height="111.8394706659977" fill="none" stroke-width="8.962371322224001" stroke="#fe4f32" data-fill-palette-color="none" data-stroke-palette-color="tertiary"></rect><rect width="395.52" height="63.91606060199769" y="111.8394706659977" fill="#fe4f32" data-fill-palette-color="tertiary"></rect></g><g><svg viewBox="0 0 395.52 110.8394706659977" height="110.8394706659977" width="395.52"><g transform="matrix(1,0,0,1,23.461705032,23.461705032)"><svg width="348.596589936" viewBox="0.05 -46.2 260.68 47.800000000000004" height="63.91606060199769" data-palette-color="#fe4f32"><path d="M23.8-38.85Q25.85-37.5 27-35.33 28.15-33.15 28.15-30.95L28.15-30.95Q28.15-27.45 25.85-22.55L25.85-22.55 14.7 1.6 0.05-33.25 4.6-35.6 16.15-7.05 22.15-19.6Q23.2-22.25 23.7-23.7 24.2-25.15 24.2-26.55L24.2-26.55Q24.2-31.05 19.7-34.45L19.7-34.45 23.8-38.85ZM42-25.45Q44.7-25.45 46.5-24 48.3-22.55 48.3-19.7L48.3-19.7Q48.3-17.4 45.82-14.58 43.35-11.75 40.02-9.4 36.7-7.05 34.35-6.1L34.35-6.1Q35.6-4.1 37.2-3.33 38.8-2.55 40.95-2.55L40.95-2.55Q43.35-2.55 45.72-3.78 48.1-5 49.65-6.95L49.65-6.95 50.25-5.9Q47.8-2.75 45.05-1.07 42.3 0.6 38.3 0.6L38.3 0.6Q35.25 0.6 32.85-0.9 30.45-2.4 29.1-4.93 27.75-7.45 27.75-10.4L27.75-10.4Q27.75-14.1 29.75-17.6 31.75-21.1 35.05-23.28 38.35-25.45 42-25.45L42-25.45ZM39.4-22.3Q37.2-22.3 35.47-20.9 33.75-19.5 32.77-17.3 31.8-15.1 31.8-12.75L31.8-12.75Q31.8-9.65 33.25-7.45L33.25-7.45Q35.35-8.4 37.8-10.33 40.25-12.25 41.95-14.5 43.65-16.75 43.65-18.6L43.65-18.6Q43.65-22.3 39.4-22.3L39.4-22.3ZM65.39-18.9Q63.14-16.55 61.52-12.78 59.89-9 59.89-5.9L59.89-5.9Q59.89-3.2 61.07-1.38 62.24 0.45 64.84 0.45L64.84 0.45Q66.94 0.45 68.87-0.65 70.8-1.75 72.14-3.5L72.14-3.5 71.59-4.25Q70.05-3.2 68.55-3.2L68.55-3.2Q66.19-3.2 65-4.85 63.8-6.5 63.8-8.85L63.8-8.85Q63.8-12.65 65.75-16.05 67.69-19.45 70.69-22.65L70.69-22.65 69.89-23.35Q66.39-21.15 63.49-21.15L63.49-21.15Q61.8-21.15 60.39-22.68 58.99-24.2 58.24-26.05L58.24-26.05 54.2-21.5Q54.55-20.5 56.09-19.2L56.09-19.2 52.74-12.2 54.59-11.35 57.84-18.5Q58.7-18.15 59.24-18.05 59.8-17.95 60.74-17.95L60.74-17.95Q63.2-17.95 65.25-19.05L65.25-19.05 65.39-18.9ZM98.49-13.2Q98.49-10.15 96.54-6.9 94.59-3.65 91.72-1.53 88.84 0.6 86.29 0.6L86.29 0.6Q82.19 0.6 79.87-2.18 77.54-4.95 77.54-9.25L77.54-9.25 77.54-44.3 82.09-46.2 82.09-8.15Q82.09-5.75 83.54-3.95 84.99-2.15 87.64-2.15L87.64-2.15Q89.84-2.15 91.47-3.4 93.09-4.65 93.92-6.48 94.74-8.3 94.74-9.95L94.74-9.95Q94.74-12.45 93.44-15.1 92.14-17.75 90.07-19.45 87.99-21.15 85.74-21.15L85.74-21.15 90.19-24.85Q92.34-24.15 94.27-22.18 96.19-20.2 97.34-17.73 98.49-15.25 98.49-13.2L98.49-13.2ZM114.69-25.45L115.59-24.4Q111.84-22 109.69-19.05 107.54-16.1 107.54-12.1L107.54-12.1Q107.54-9.85 108.49-7.58 109.44-5.3 111.34-3.8 113.24-2.3 115.89-2.3L115.89-2.3Q118.04-2.3 119.72-3.3 121.39-4.3 122.32-6 123.24-7.7 123.24-9.75L123.24-9.75Q123.24-12.1 121.82-14.55 120.39-17 118.09-18.7 115.79-20.4 113.39-20.6L113.39-20.6Q114.39-21.6 115.79-22.7 117.19-23.8 118.64-24.85L118.64-24.85Q122.09-23.7 124.09-20.48 126.09-17.25 126.09-13.3L126.09-13.3Q126.09-9.8 124.67-6.58 123.24-3.35 120.49-1.33 117.74 0.7 113.99 0.7L113.99 0.7Q110.99 0.7 108.47-0.78 105.94-2.25 104.49-4.8 103.04-7.35 103.04-10.45L103.04-10.45Q103.04-15.9 106.27-19.9 109.49-23.9 114.69-25.45L114.69-25.45ZM138.04-27.05Q139.74-27.05 140.51-26.45 141.29-25.85 141.29-24.6L141.29-24.6Q141.29-23.25 140.76-22.2 140.24-21.15 139.64-20.4 139.04-19.65 138.84-19.35L138.84-19.35Q139.44-18.35 141.09-17L141.09-17Q142.44-15.85 143.24-14.95 144.04-14.05 144.61-12.53 145.19-11 145.19-8.8L145.19-8.8Q145.19-6.2 144.01-4.05 142.84-1.9 140.76-0.65 138.69 0.6 136.09 0.6L136.09 0.6Q134.49 0.6 132.59-0.08 130.69-0.75 129.79-2L129.79-2 133.14-6.45Q134.34-4.9 135.66-3.8 136.99-2.7 138.54-2.7L138.54-2.7Q140.69-2.7 142.21-4.13 143.74-5.55 143.74-7.55L143.74-7.55Q143.74-9.15 142.41-10.73 141.09-12.3 138.69-14.45L138.69-14.45Q138.39-14.7 137.54-15.48 136.69-16.25 136.29-16.75L136.29-16.75 132.79-11.6 131.19-12.65 135.19-18.2Q134.49-20.15 134.49-22.05L134.49-22.05Q134.49-24.2 135.44-25.63 136.39-27.05 138.04-27.05L138.04-27.05ZM138.04-25.1Q137.39-25.1 137.21-24.75 137.04-24.4 137.04-23.7L137.04-23.7Q137.04-22.8 137.29-22.15 137.54-21.5 137.64-21.25L137.64-21.25Q138.19-21.6 138.66-22.53 139.14-23.45 139.14-24.1L139.14-24.1Q139.14-24.55 138.86-24.83 138.59-25.1 138.04-25.1L138.04-25.1ZM166.84-38.85Q168.89-37.5 170.04-35.33 171.19-33.15 171.19-30.95L171.19-30.95Q171.19-27.45 168.89-22.55L168.89-22.55 157.74 1.6 143.09-33.25 147.64-35.6 159.19-7.05 165.19-19.6Q166.24-22.25 166.74-23.7 167.24-25.15 167.24-26.55L167.24-26.55Q167.24-31.05 162.74-34.45L162.74-34.45 166.84-38.85ZM185.03-25.45Q187.73-25.45 189.53-24 191.33-22.55 191.33-19.7L191.33-19.7Q191.33-17.4 188.86-14.58 186.38-11.75 183.06-9.4 179.73-7.05 177.38-6.1L177.38-6.1Q178.63-4.1 180.23-3.33 181.83-2.55 183.98-2.55L183.98-2.55Q186.38-2.55 188.76-3.78 191.13-5 192.68-6.95L192.68-6.95 193.28-5.9Q190.83-2.75 188.08-1.07 185.33 0.6 181.33 0.6L181.33 0.6Q178.28 0.6 175.88-0.9 173.48-2.4 172.13-4.93 170.78-7.45 170.78-10.4L170.78-10.4Q170.78-14.1 172.78-17.6 174.78-21.1 178.08-23.28 181.38-25.45 185.03-25.45L185.03-25.45ZM182.43-22.3Q180.23-22.3 178.51-20.9 176.78-19.5 175.81-17.3 174.83-15.1 174.83-12.75L174.83-12.75Q174.83-9.65 176.28-7.45L176.28-7.45Q178.38-8.4 180.83-10.33 183.28-12.25 184.98-14.5 186.68-16.75 186.68-18.6L186.68-18.6Q186.68-22.3 182.43-22.3L182.43-22.3ZM208.43-18.9Q206.18-16.55 204.56-12.78 202.93-9 202.93-5.9L202.93-5.9Q202.93-3.2 204.11-1.38 205.28 0.45 207.88 0.45L207.88 0.45Q209.98 0.45 211.91-0.65 213.83-1.75 215.18-3.5L215.18-3.5 214.63-4.25Q213.08-3.2 211.58-3.2L211.58-3.2Q209.23-3.2 208.03-4.85 206.83-6.5 206.83-8.85L206.83-8.85Q206.83-12.65 208.78-16.05 210.73-19.45 213.73-22.65L213.73-22.65 212.93-23.35Q209.43-21.15 206.53-21.15L206.53-21.15Q204.83-21.15 203.43-22.68 202.03-24.2 201.28-26.05L201.28-26.05 197.23-21.5Q197.58-20.5 199.13-19.2L199.13-19.2 195.78-12.2 197.63-11.35 200.88-18.5Q201.73-18.15 202.28-18.05 202.83-17.95 203.78-17.95L203.78-17.95Q206.23-17.95 208.28-19.05L208.28-19.05 208.43-18.9ZM241.53-13.2Q241.53-10.15 239.58-6.9 237.63-3.65 234.75-1.53 231.88 0.6 229.33 0.6L229.33 0.6Q225.23 0.6 222.9-2.18 220.58-4.95 220.58-9.25L220.58-9.25 220.58-44.3 225.13-46.2 225.13-8.15Q225.13-5.75 226.58-3.95 228.03-2.15 230.68-2.15L230.68-2.15Q232.88-2.15 234.5-3.4 236.13-4.65 236.95-6.48 237.78-8.3 237.78-9.95L237.78-9.95Q237.78-12.45 236.48-15.1 235.18-17.75 233.1-19.45 231.03-21.15 228.78-21.15L228.78-21.15 233.23-24.85Q235.38-24.15 237.3-22.18 239.23-20.2 240.38-17.73 241.53-15.25 241.53-13.2L241.53-13.2ZM253.58-27.05Q255.28-27.05 256.05-26.45 256.83-25.85 256.83-24.6L256.83-24.6Q256.83-23.25 256.3-22.2 255.78-21.15 255.18-20.4 254.58-19.65 254.38-19.35L254.38-19.35Q254.98-18.35 256.63-17L256.63-17Q257.98-15.85 258.78-14.95 259.58-14.05 260.15-12.53 260.73-11 260.73-8.8L260.73-8.8Q260.73-6.2 259.55-4.05 258.38-1.9 256.3-0.65 254.23 0.6 251.63 0.6L251.63 0.6Q250.03 0.6 248.13-0.08 246.23-0.75 245.33-2L245.33-2 248.68-6.45Q249.88-4.9 251.2-3.8 252.53-2.7 254.08-2.7L254.08-2.7Q256.23-2.7 257.75-4.13 259.28-5.55 259.28-7.55L259.28-7.55Q259.28-9.15 257.95-10.73 256.63-12.3 254.23-14.45L254.23-14.45Q253.93-14.7 253.08-15.48 252.23-16.25 251.83-16.75L251.83-16.75 248.33-11.6 246.73-12.65 250.73-18.2Q250.03-20.15 250.03-22.05L250.03-22.05Q250.03-24.2 250.98-25.63 251.93-27.05 253.58-27.05L253.58-27.05ZM253.58-25.1Q252.93-25.1 252.75-24.75 252.58-24.4 252.58-23.7L252.58-23.7Q252.58-22.8 252.83-22.15 253.08-21.5 253.18-21.25L253.18-21.25Q253.73-21.6 254.2-22.53 254.68-23.45 254.68-24.1L254.68-24.1Q254.68-24.55 254.4-24.83 254.13-25.1 253.58-25.1L253.58-25.1Z" opacity="1" transform="matrix(1,0,0,1,0,0)" fill="#fe4f32" class="wordmark-text-0" data-fill-palette-color="primary" id="text-0"></path></svg></g></svg></g><g transform="matrix(1,0,0,1,0,110.8394706659977)"><svg viewBox="0 0 395.52 49.879111632912625" height="49.879111632912625" width="395.52"><g transform="matrix(1,0,0,1,20,3.2)"><svg width="355.52" viewBox="2.25 -46.2 511 62.50000000000001" height="43.47911163291263" data-palette-color="#ffffff"><path d="M15.1-36.4Q18.45-36.4 21.45-34.88 24.45-33.35 26.5-30.55L26.5-30.55 22.6-25.75Q21.35-29.25 18.88-31.55 16.4-33.85 13-33.85L13-33.85Q9.75-33.85 7.95-32 6.15-30.15 6.15-27.25L6.15-27.25Q6.15-24.55 7.45-22.75 8.75-20.95 10.6-19.85 12.45-18.75 15.6-17.35L15.6-17.35Q18.6-16 20.33-15 22.05-14 23.25-12.4 24.45-10.8 24.45-8.45L24.45-8.45Q24.5-4.1 21.65-1.75 18.8 0.6 14.25 0.6L14.25 0.6Q10.9 0.6 7.88-0.73 4.85-2.05 3.05-4.75L3.05-4.75 6.95-9.1Q8.65-5.1 11.1-3.43 13.55-1.75 15.85-1.75L15.85-1.75Q18-1.75 19.53-2.93 21.05-4.1 21.05-6L21.05-6Q21.05-7.75 19.98-9.08 18.9-10.4 17.3-11.33 15.7-12.25 12.95-13.5L12.95-13.5Q9.45-15.1 7.35-16.4 5.25-17.7 3.75-19.83 2.25-21.95 2.25-25L2.25-25Q2.25-28.2 3.93-30.83 5.6-33.45 8.55-34.93 11.5-36.4 15.1-36.4L15.1-36.4ZM43.3-25.25Q45.95-25.25 48.2-23.73 50.45-22.2 51.75-19.58 53.05-16.95 53.05-13.85L53.05-13.85Q53.05-9.45 51.82-6.23 50.6-3 48.3-1.25 46 0.5 42.9 0.5L42.9 0.5Q42.15 0.5 41.42 0.28 40.7 0.05 39.6-0.5L39.6-0.5 40.9-3.35Q42.15-2.55 44.5-2.55L44.5-2.55Q46.6-2.55 47.92-5.33 49.25-8.1 49.25-12.45L49.25-12.45Q49.25-14.95 48.25-17.03 47.25-19.1 45.5-20.28 43.75-21.45 41.6-21.45L41.6-21.45Q39-21.45 37.6-18.65 36.2-15.85 36.2-10.7L36.2-10.7 36.2 14.45 31.85 16.3 31.85-20.55Q31.85-21.45 31.45-22 31.05-22.55 30.4-22.55L30.4-22.55Q29.9-22.55 29.3-22.05 28.7-21.55 27.8-20.45L27.8-20.45 27.05-21.2Q27.65-22.9 29.15-24.08 30.65-25.25 32.15-25.25L32.15-25.25Q34.4-25.25 35.4-23.93 36.4-22.6 36.4-19.65L36.4-19.65 36.6-19.65Q37.75-22.15 39.57-23.7 41.4-25.25 43.3-25.25L43.3-25.25ZM71.05-25Q73.5-25 75.67-23.95 77.85-22.9 78.85-20.75L78.85-20.75 75.25-18.8Q74.45-19.95 73.05-20.88 71.65-21.8 70.05-21.8L70.05-21.8Q67.5-21.8 65.6-20.48 63.7-19.15 62.7-16.9 61.7-14.65 61.7-11.9L61.7-11.9Q61.7-7.95 63.05-5.48 64.4-3 67.3-3L67.3-3Q71.4-3 72.95-6.3 74.5-9.6 74.5-13.5L74.5-13.5 74.5-15.75 78.9-17.6 78.9-4.45Q78.9-3.8 79.25-3.2 79.6-2.6 80.3-2.6L80.3-2.6Q81.75-2.6 82.95-4.6L82.95-4.6 83.7-3.8Q83.1-2.1 81.6-0.93 80.1 0.25 78.6 0.25L78.6 0.25Q76.45 0.25 75.42-1.35 74.4-2.95 74.4-5.6L74.4-5.6 74.3-5.6Q73.05-2.95 70.92-1.18 68.8 0.6 66.45 0.6L66.45 0.6Q62.2 0.6 60.02-2.33 57.85-5.25 57.85-10.15L57.85-10.15Q57.85-14.05 59.6-17.48 61.35-20.9 64.37-22.95 67.4-25 71.05-25L71.05-25ZM105.79-25.45Q107.79-25.45 108.39-23.98 108.99-22.5 108.99-19.9L108.99-19.9 108.99-18.35 108.99-4.2Q108.99-3.65 109.34-3.08 109.69-2.5 110.34-2.5L110.34-2.5Q111.19-2.5 111.79-3.05 112.39-3.6 112.99-4.45L112.99-4.45 113.74-3.7Q112.99-2.1 111.49-0.93 109.99 0.25 108.64 0.25L108.64 0.25Q106.64 0.25 105.54-1 104.44-2.25 104.44-4.8L104.44-4.8 104.44-18.05Q104.44-18.8 104.29-19.3 104.14-19.8 103.54-19.8L103.54-19.8Q101.49-19.8 99.34-15.85 97.19-11.9 95.67-7.03 94.14-2.15 94.14-0.6L94.14-0.6 89.79 0.7 89.79-20.7Q89.79-21.4 89.42-21.98 89.04-22.55 88.34-22.55L88.34-22.55Q87.14-22.55 85.74-20.4L85.74-20.4 84.99-21.2Q85.64-23 87.14-24.23 88.64-25.45 90.14-25.45L90.14-25.45Q92.24-25.45 93.27-24.45 94.29-23.45 94.29-21.7L94.29-21.7 94.29-8.55 94.49-8.55Q95.84-13 97.09-16.3 98.34-19.6 100.59-22.53 102.84-25.45 105.79-25.45L105.79-25.45ZM123.69-41.7L121.99-30.05 120.34-29.45 118.29-39.85 123.69-41.7ZM123.64-24.8L123.64-4.2Q123.64-3.45 124.02-2.98 124.39-2.5 125.09-2.5L125.09-2.5Q125.64-2.5 126.32-3 126.99-3.5 127.69-4.45L127.69-4.45 128.49-3.7Q127.34-1.55 125.72-0.65 124.09 0.25 122.74 0.25L122.74 0.25Q120.94 0.25 119.97-0.9 118.99-2.05 118.99-4.8L118.99-4.8 118.99-23 123.64-24.8ZM139.09-27.05Q140.79-27.05 141.56-26.45 142.34-25.85 142.34-24.6L142.34-24.6Q142.34-23.25 141.81-22.2 141.29-21.15 140.69-20.4 140.09-19.65 139.89-19.35L139.89-19.35Q140.49-18.35 142.14-17L142.14-17Q143.49-15.85 144.29-14.95 145.09-14.05 145.66-12.53 146.24-11 146.24-8.8L146.24-8.8Q146.24-6.2 145.06-4.05 143.89-1.9 141.81-0.65 139.74 0.6 137.14 0.6L137.14 0.6Q135.54 0.6 133.64-0.08 131.74-0.75 130.84-2L130.84-2 134.19-6.45Q135.39-4.9 136.71-3.8 138.04-2.7 139.59-2.7L139.59-2.7Q141.74-2.7 143.26-4.13 144.79-5.55 144.79-7.55L144.79-7.55Q144.79-9.15 143.46-10.73 142.14-12.3 139.74-14.45L139.74-14.45Q139.44-14.7 138.59-15.48 137.74-16.25 137.34-16.75L137.34-16.75 133.84-11.6 132.24-12.65 136.24-18.2Q135.54-20.15 135.54-22.05L135.54-22.05Q135.54-24.2 136.49-25.63 137.44-27.05 139.09-27.05L139.09-27.05ZM139.09-25.1Q138.44-25.1 138.26-24.75 138.09-24.4 138.09-23.7L138.09-23.7Q138.09-22.8 138.34-22.15 138.59-21.5 138.69-21.25L138.69-21.25Q139.24-21.6 139.71-22.53 140.19-23.45 140.19-24.1L140.19-24.1Q140.19-24.55 139.91-24.83 139.64-25.1 139.09-25.1L139.09-25.1ZM157.19-46.2L157.19-10.65 157.39-10.65Q157.89-13.4 159.16-16.82 160.44-20.25 162.59-22.85 164.74-25.45 167.64-25.45L167.64-25.45Q169.19-25.45 169.91-24.33 170.64-23.2 170.76-21.8 170.89-20.4 170.89-18.1L170.89-18.1 170.89-4.2Q170.89-3.6 171.26-3.05 171.64-2.5 172.44-2.5L172.44-2.5Q173.74-2.5 175.09-4.45L175.09-4.45 175.69-3.7Q174.99-2.05 173.46-0.9 171.94 0.25 170.39 0.25L170.39 0.25Q166.49 0.25 166.49-4.8L166.49-4.8 166.49-18.05Q166.49-18.7 166.21-19.25 165.94-19.8 165.29-19.8L165.29-19.8Q162.74-19.8 160.89-15.83 159.04-11.85 158.04-7.08 157.04-2.3 157.04-0.6L157.04-0.6 152.59 0.7 152.59-44.3 157.19-46.2ZM208.18-26.7Q210.18-26.05 211.28-24.55 212.38-23.05 212.38-21.1L212.38-21.1Q212.38-20.05 212.11-18.8 211.83-17.55 211.38-16.65L211.38-16.65 202.68 0.55Q202.58 0.65 202.26 0.75 201.93 0.85 201.68 0.85L201.68 0.85Q201.28 0.85 200.91 0.7 200.53 0.55 200.48 0.4L200.48 0.4 191.83-18.5Q190.58-20.8 189.23-20.8L189.23-20.8Q188.73-20.8 188.31-20.48 187.88-20.15 187.73-20.05L187.73-20.05 187.28-20.6Q187.88-22.5 189.51-23.75 191.13-25 192.78-25L192.78-25Q193.73-25 194.46-23.75 195.18-22.5 195.63-21.33 196.08-20.15 196.23-19.8L196.23-19.8 203.23-4.25 207.68-13.3Q207.73-13.45 208.11-14.4 208.48-15.35 208.48-16.25L208.48-16.25Q208.48-19.95 204.48-21.8L204.48-21.8 208.18-26.7ZM229.38-25.45Q232.08-25.45 233.88-24 235.68-22.55 235.68-19.7L235.68-19.7Q235.68-17.4 233.2-14.58 230.73-11.75 227.4-9.4 224.08-7.05 221.73-6.1L221.73-6.1Q222.98-4.1 224.58-3.33 226.18-2.55 228.33-2.55L228.33-2.55Q230.73-2.55 233.1-3.78 235.48-5 237.03-6.95L237.03-6.95 237.63-5.9Q235.18-2.75 232.43-1.07 229.68 0.6 225.68 0.6L225.68 0.6Q222.63 0.6 220.23-0.9 217.83-2.4 216.48-4.93 215.13-7.45 215.13-10.4L215.13-10.4Q215.13-14.1 217.13-17.6 219.13-21.1 222.43-23.28 225.73-25.45 229.38-25.45L229.38-25.45ZM226.78-22.3Q224.58-22.3 222.85-20.9 221.13-19.5 220.15-17.3 219.18-15.1 219.18-12.75L219.18-12.75Q219.18-9.65 220.63-7.45L220.63-7.45Q222.73-8.4 225.18-10.33 227.63-12.25 229.33-14.5 231.03-16.75 231.03-18.6L231.03-18.6Q231.03-22.3 226.78-22.3L226.78-22.3ZM252.78-18.9Q250.53-16.55 248.9-12.78 247.28-9 247.28-5.9L247.28-5.9Q247.28-3.2 248.45-1.38 249.63 0.45 252.23 0.45L252.23 0.45Q254.33 0.45 256.25-0.65 258.18-1.75 259.53-3.5L259.53-3.5 258.98-4.25Q257.43-3.2 255.93-3.2L255.93-3.2Q253.58-3.2 252.38-4.85 251.18-6.5 251.18-8.85L251.18-8.85Q251.18-12.65 253.13-16.05 255.08-19.45 258.08-22.65L258.08-22.65 257.28-23.35Q253.78-21.15 250.88-21.15L250.88-21.15Q249.18-21.15 247.78-22.68 246.38-24.2 245.63-26.05L245.63-26.05 241.58-21.5Q241.93-20.5 243.48-19.2L243.48-19.2 240.13-12.2 241.98-11.35 245.23-18.5Q246.08-18.15 246.63-18.05 247.18-17.95 248.13-17.95L248.13-17.95Q250.58-17.95 252.63-19.05L252.63-19.05 252.78-18.9ZM285.87-13.2Q285.87-10.15 283.92-6.9 281.97-3.65 279.1-1.53 276.22 0.6 273.67 0.6L273.67 0.6Q269.57 0.6 267.25-2.18 264.92-4.95 264.92-9.25L264.92-9.25 264.92-44.3 269.47-46.2 269.47-8.15Q269.47-5.75 270.92-3.95 272.37-2.15 275.02-2.15L275.02-2.15Q277.22-2.15 278.85-3.4 280.47-4.65 281.3-6.48 282.12-8.3 282.12-9.95L282.12-9.95Q282.12-12.45 280.82-15.1 279.52-17.75 277.45-19.45 275.37-21.15 273.12-21.15L273.12-21.15 277.57-24.85Q279.72-24.15 281.65-22.18 283.57-20.2 284.72-17.73 285.87-15.25 285.87-13.2L285.87-13.2ZM297.92-27.05Q299.62-27.05 300.4-26.45 301.17-25.85 301.17-24.6L301.17-24.6Q301.17-23.25 300.65-22.2 300.12-21.15 299.52-20.4 298.92-19.65 298.72-19.35L298.72-19.35Q299.32-18.35 300.97-17L300.97-17Q302.32-15.85 303.12-14.95 303.92-14.05 304.5-12.53 305.07-11 305.07-8.8L305.07-8.8Q305.07-6.2 303.9-4.05 302.72-1.9 300.65-0.65 298.57 0.6 295.97 0.6L295.97 0.6Q294.37 0.6 292.47-0.08 290.57-0.75 289.67-2L289.67-2 293.02-6.45Q294.22-4.9 295.55-3.8 296.87-2.7 298.42-2.7L298.42-2.7Q300.57-2.7 302.1-4.13 303.62-5.55 303.62-7.55L303.62-7.55Q303.62-9.15 302.3-10.73 300.97-12.3 298.57-14.45L298.57-14.45Q298.27-14.7 297.42-15.48 296.57-16.25 296.17-16.75L296.17-16.75 292.67-11.6 291.07-12.65 295.07-18.2Q294.37-20.15 294.37-22.05L294.37-22.05Q294.37-24.2 295.32-25.63 296.27-27.05 297.92-27.05L297.92-27.05ZM297.92-25.1Q297.27-25.1 297.1-24.75 296.92-24.4 296.92-23.7L296.92-23.7Q296.92-22.8 297.17-22.15 297.42-21.5 297.52-21.25L297.52-21.25Q298.07-21.6 298.55-22.53 299.02-23.45 299.02-24.1L299.02-24.1Q299.02-24.55 298.75-24.83 298.47-25.1 297.92-25.1L297.92-25.1ZM333.76-25Q336.22-25 338.39-23.95 340.56-22.9 341.56-20.75L341.56-20.75 337.97-18.8Q337.17-19.95 335.76-20.88 334.37-21.8 332.76-21.8L332.76-21.8Q330.22-21.8 328.31-20.48 326.42-19.15 325.42-16.9 324.42-14.65 324.42-11.9L324.42-11.9Q324.42-7.95 325.76-5.48 327.12-3 330.01-3L330.01-3Q334.12-3 335.67-6.3 337.22-9.6 337.22-13.5L337.22-13.5 337.22-15.75 341.62-17.6 341.62-4.45Q341.62-3.8 341.97-3.2 342.31-2.6 343.01-2.6L343.01-2.6Q344.47-2.6 345.67-4.6L345.67-4.6 346.42-3.8Q345.81-2.1 344.31-0.93 342.81 0.25 341.31 0.25L341.31 0.25Q339.17 0.25 338.14-1.35 337.12-2.95 337.12-5.6L337.12-5.6 337.01-5.6Q335.76-2.95 333.64-1.18 331.51 0.6 329.17 0.6L329.17 0.6Q324.92 0.6 322.74-2.33 320.56-5.25 320.56-10.15L320.56-10.15Q320.56-14.05 322.31-17.48 324.06-20.9 327.09-22.95 330.12-25 333.76-25L333.76-25ZM360.66-18.9Q358.41-16.55 356.79-12.78 355.16-9 355.16-5.9L355.16-5.9Q355.16-3.2 356.34-1.38 357.51 0.45 360.11 0.45L360.11 0.45Q362.21 0.45 364.14-0.65 366.06-1.75 367.41-3.5L367.41-3.5 366.86-4.25Q365.31-3.2 363.81-3.2L363.81-3.2Q361.46-3.2 360.26-4.85 359.06-6.5 359.06-8.85L359.06-8.85Q359.06-12.65 361.01-16.05 362.96-19.45 365.96-22.65L365.96-22.65 365.16-23.35Q361.66-21.15 358.76-21.15L358.76-21.15Q357.06-21.15 355.66-22.68 354.26-24.2 353.51-26.05L353.51-26.05 349.46-21.5Q349.81-20.5 351.36-19.2L351.36-19.2 348.01-12.2 349.86-11.35 353.11-18.5Q353.96-18.15 354.51-18.05 355.06-17.95 356.01-17.95L356.01-17.95Q358.46-17.95 360.51-19.05L360.51-19.05 360.66-18.9ZM385.36-25.45Q388.06-25.45 389.86-24 391.66-22.55 391.66-19.7L391.66-19.7Q391.66-17.4 389.19-14.58 386.71-11.75 383.38-9.4 380.06-7.05 377.71-6.1L377.71-6.1Q378.96-4.1 380.56-3.33 382.16-2.55 384.31-2.55L384.31-2.55Q386.71-2.55 389.09-3.78 391.46-5 393.01-6.95L393.01-6.95 393.61-5.9Q391.16-2.75 388.41-1.07 385.66 0.6 381.66 0.6L381.66 0.6Q378.61 0.6 376.21-0.9 373.81-2.4 372.46-4.93 371.11-7.45 371.11-10.4L371.11-10.4Q371.11-14.1 373.11-17.6 375.11-21.1 378.41-23.28 381.71-25.45 385.36-25.45L385.36-25.45ZM382.76-22.3Q380.56-22.3 378.84-20.9 377.11-19.5 376.13-17.3 375.16-15.1 375.16-12.75L375.16-12.75Q375.16-9.65 376.61-7.45L376.61-7.45Q378.71-8.4 381.16-10.33 383.61-12.25 385.31-14.5 387.01-16.75 387.01-18.6L387.01-18.6Q387.01-22.3 382.76-22.3L382.76-22.3ZM414.56-46.2L414.56-10.65 414.76-10.65Q415.26-13.4 416.53-16.82 417.81-20.25 419.96-22.85 422.11-25.45 425.01-25.45L425.01-25.45Q426.56-25.45 427.28-24.33 428.01-23.2 428.13-21.8 428.26-20.4 428.26-18.1L428.26-18.1 428.26-4.2Q428.26-3.6 428.63-3.05 429.01-2.5 429.81-2.5L429.81-2.5Q431.11-2.5 432.46-4.45L432.46-4.45 433.06-3.7Q432.36-2.05 430.83-0.9 429.31 0.25 427.76 0.25L427.76 0.25Q423.86 0.25 423.86-4.8L423.86-4.8 423.86-18.05Q423.86-18.7 423.58-19.25 423.31-19.8 422.66-19.8L422.66-19.8Q420.11-19.8 418.26-15.83 416.41-11.85 415.41-7.08 414.41-2.3 414.41-0.6L414.41-0.6 409.96 0.7 409.96-44.3 414.56-46.2ZM449.6-25Q452.05-25 454.23-23.95 456.4-22.9 457.4-20.75L457.4-20.75 453.8-18.8Q453-19.95 451.6-20.88 450.2-21.8 448.6-21.8L448.6-21.8Q446.05-21.8 444.15-20.48 442.25-19.15 441.25-16.9 440.25-14.65 440.25-11.9L440.25-11.9Q440.25-7.95 441.6-5.48 442.95-3 445.85-3L445.85-3Q449.95-3 451.5-6.3 453.05-9.6 453.05-13.5L453.05-13.5 453.05-15.75 457.45-17.6 457.45-4.45Q457.45-3.8 457.8-3.2 458.15-2.6 458.85-2.6L458.85-2.6Q460.3-2.6 461.5-4.6L461.5-4.6 462.25-3.8Q461.65-2.1 460.15-0.93 458.65 0.25 457.15 0.25L457.15 0.25Q455 0.25 453.98-1.35 452.95-2.95 452.95-5.6L452.95-5.6 452.85-5.6Q451.6-2.95 449.48-1.18 447.35 0.6 445 0.6L445 0.6Q440.75 0.6 438.58-2.33 436.4-5.25 436.4-10.15L436.4-10.15Q436.4-14.05 438.15-17.48 439.9-20.9 442.93-22.95 445.95-25 449.6-25L449.6-25ZM476.5-18.9Q474.25-16.55 472.63-12.78 471-9 471-5.9L471-5.9Q471-3.2 472.18-1.38 473.35 0.45 475.95 0.45L475.95 0.45Q478.05 0.45 479.98-0.65 481.9-1.75 483.25-3.5L483.25-3.5 482.7-4.25Q481.15-3.2 479.65-3.2L479.65-3.2Q477.3-3.2 476.1-4.85 474.9-6.5 474.9-8.85L474.9-8.85Q474.9-12.65 476.85-16.05 478.8-19.45 481.8-22.65L481.8-22.65 481-23.35Q477.5-21.15 474.6-21.15L474.6-21.15Q472.9-21.15 471.5-22.68 470.1-24.2 469.35-26.05L469.35-26.05 465.3-21.5Q465.65-20.5 467.2-19.2L467.2-19.2 463.85-12.2 465.7-11.35 468.95-18.5Q469.8-18.15 470.35-18.05 470.9-17.95 471.85-17.95L471.85-17.95Q474.3-17.95 476.35-19.05L476.35-19.05 476.5-18.9ZM508.5-46.2L508.5-4.45Q508.5-3.75 508.82-3.18 509.15-2.6 509.85-2.6L509.85-2.6Q510.55-2.6 511.25-3.23 511.95-3.85 512.3-4.6L512.3-4.6 513.25-3.8Q512.45-2.1 510.97-0.93 509.5 0.25 508.1 0.25L508.1 0.25Q505.8 0.25 504.75-1.05 503.7-2.35 503.75-5.55L503.75-5.55 503.55-5.55Q500.5 0.6 496.1 0.6L496.1 0.6Q491.75 0.6 489.42-2.43 487.1-5.45 487.1-10L487.1-10Q487.1-13.6 488.65-17.15 490.2-20.7 493.07-23 495.95-25.3 499.7-25.3L499.7-25.3Q502.05-25.3 503.8-24.1L503.8-24.1 503.8-44.3 508.5-46.2ZM499.4-22.35Q496.6-22.35 494.77-20.6 492.95-18.85 492.1-16.38 491.25-13.9 491.25-11.75L491.25-11.75Q491.25-10.05 491.85-8 492.45-5.95 493.8-4.48 495.15-3 497.25-3L497.25-3Q501.05-3 502.42-6.28 503.8-9.55 503.8-13.5L503.8-13.5 503.8-20.35Q502.95-21.25 501.82-21.8 500.7-22.35 499.4-22.35L499.4-22.35Z" opacity="1" transform="matrix(1,0,0,1,0,0)" fill="#ffffff" class="slogan-text-1" data-fill-palette-color="quaternary" id="text-1"></path></svg></g></svg></g></svg></g></svg></g><g></g></svg></g><defs></defs></svg><rect width="395.52" height="160.71858229891032" fill="none" stroke="none" visibility="hidden"></rect></g></svg></g></svg>